<svg xmlns="http://www.w3.org/2000/svg" width="32" height="32" viewBox="0 0 32 32" fill="none">
  <mask id="mask0_65_755" style="mask-type:alpha" maskUnits="userSpaceOnUse" x="0" y="0" width="32" height="32">
    <rect width="32" height="32" fill="#D9D9D9"/>
  </mask>
  <g mask="url(#mask0_65_755)">
    <path d="M15.9997 30.6665L6.39967 23.4665C6.06634 23.2221 5.80523 22.9109 5.61634 22.5332C5.42745 22.1554 5.33301 21.7554 5.33301 21.3332V5.33317C5.33301 4.59984 5.59412 3.97206 6.11634 3.44984C6.63856 2.92762 7.26634 2.6665 7.99967 2.6665H23.9997C24.733 2.6665 25.3608 2.92762 25.883 3.44984C26.4052 3.97206 26.6663 4.59984 26.6663 5.33317V21.3332C26.6663 21.7554 26.5719 22.1554 26.383 22.5332C26.1941 22.9109 25.933 23.2221 25.5997 23.4665L15.9997 30.6665ZM15.9997 27.3332L23.9997 21.3332V5.33317H7.99967V21.3332L15.9997 27.3332ZM14.5997 19.9998L22.133 12.4665L20.2663 10.5332L14.5997 16.1998L11.7997 13.3998L9.86634 15.2665L14.5997 19.9998Z" fill="#6C6C6C"/>
  </g>
</svg>