<svg xmlns="http://www.w3.org/2000/svg" width="32" height="32" viewBox="0 0 32 32" fill="none">
  <path d="M5.36019 18C4.25486 18 3.35352 17.1053 3.35352 16C3.35352 14.8947 4.24284 14 5.34684 14H5.36019C6.46552 14 7.36019 14.8947 7.36019 16C7.36019 17.1053 6.46552 18 5.36019 18ZM16.0269 18C14.9215 18 14.0202 17.1053 14.0202 16C14.0202 14.8947 14.9095 14 16.0135 14H16.0269C17.1322 14 18.0269 14.8947 18.0269 16C18.0269 17.1053 17.1322 18 16.0269 18ZM26.6935 18C25.5882 18 24.6868 17.1053 24.6868 16C24.6868 14.8947 25.5762 14 26.6802 14H26.6935C27.7989 14 28.6935 14.8947 28.6935 16C28.6935 17.1053 27.7989 18 26.6935 18Z" fill="#6C6C6C"/>
</svg>