<svg xmlns="http://www.w3.org/2000/svg" width="32" height="32" viewBox="0 0 32 32" fill="none">
  <path d="M15.9996 28.9999C15.8583 28.9999 15.7169 28.9706 15.5849 28.9106C15.1489 28.7119 4.88764 23.9533 3.24231 15.4786C2.60631 12.1999 3.24498 9.00123 4.95032 6.9239C6.33032 5.24123 8.31426 4.34654 10.6889 4.33454C10.7009 4.33454 10.7129 4.33454 10.7236 4.33454C13.4329 4.33454 15.085 5.87725 15.9983 7.19058C16.9157 5.87191 18.5809 4.32254 21.3076 4.33454C23.6836 4.34654 25.6689 5.24123 27.0503 6.9239C28.7529 8.9999 29.3902 12.1986 28.7529 15.4799C27.1102 23.9546 16.8476 28.7146 16.4116 28.9119C16.2822 28.9706 16.141 28.9999 15.9996 28.9999ZM10.7223 6.33324C10.7143 6.33324 10.7077 6.33324 10.6997 6.33324C8.91567 6.34124 7.50236 6.96655 6.49703 8.19188C5.16503 9.81455 4.68367 12.3959 5.20634 15.0972C6.47967 21.6626 14.1236 25.9292 15.9996 26.8865C17.8756 25.9292 25.5196 21.6626 26.7916 15.0972C27.317 12.3946 26.8356 9.81322 25.5063 8.19188C24.501 6.96788 23.0876 6.34388 21.2996 6.33454C21.2916 6.33454 21.2836 6.33454 21.277 6.33454C18.1143 6.33454 16.993 9.50391 16.9477 9.63858C16.809 10.0426 16.4276 10.3172 16.0009 10.3172C15.9983 10.3172 15.9969 10.3172 15.9956 10.3172C15.5676 10.3159 15.1863 10.0426 15.0503 9.63589C15.0063 9.50256 13.8836 6.33324 10.7223 6.33324Z" fill="#E91B1B"/>
  <path d="M10.7223 6.33324H10.6997C8.91567 6.34124 7.50236 6.96655 6.49703 8.19188C5.16503 9.81455 4.68367 12.3959 5.20634 15.0972C6.47967 21.6626 14.1236 25.9292 15.9996 26.8865C17.8756 25.9292 25.5196 21.6626 26.7916 15.0972C27.317 12.3946 26.8356 9.81322 25.5063 8.19188C24.501 6.96788 23.0876 6.34388 21.2996 6.33454H21.277C18.1143 6.33454 16.993 9.50391 16.9477 9.63858C16.809 10.0426 16.4276 10.3172 16.0009 10.3172H15.9956C15.5676 10.3159 15.1863 10.0426 15.0503 9.63589C15.0063 9.50256 13.8836 6.33324 10.7223 6.33324Z" fill="#E91B1B"/>
</svg>