<svg xmlns="http://www.w3.org/2000/svg" width="32" height="32" viewBox="0 0 32 32" fill="none">
  <path d="M28.9997 5.33325V11.9999C28.9997 12.5519 28.5517 12.9999 27.9997 12.9999H21.333C20.781 12.9999 20.333 12.5519 20.333 11.9999C20.333 11.4479 20.781 10.9999 21.333 10.9999H25.7731C23.9198 7.36525 20.1637 4.99992 15.9997 4.99992C9.93434 4.99992 4.99967 9.93459 4.99967 15.9999C4.99967 22.0653 9.93434 26.9999 15.9997 26.9999C20.2037 26.9999 23.9783 24.6586 25.8503 20.8892C26.0956 20.3959 26.6944 20.1907 27.1917 20.4387C27.6851 20.6854 27.8876 21.2839 27.6423 21.7786C25.4303 26.2332 20.969 29.0012 16.001 29.0012C8.83298 29.0012 3.00098 23.1692 3.00098 16.0012C3.00098 8.83322 8.83298 3.00122 16.001 3.00122C20.5303 3.00122 24.6623 5.36251 27.001 9.08651V5.33325C27.001 4.78125 27.449 4.33325 28.001 4.33325C28.553 4.33325 28.9997 4.78125 28.9997 5.33325Z" fill="#6C6C6C"/>
</svg>