<svg xmlns="http://www.w3.org/2000/svg" width="32" height="32" viewBox="0 0 32 32" fill="none">
  <path fill-rule="evenodd" clip-rule="evenodd" d="M14.6138 2C7.65776 2 2 7.65769 2 14.6136C2 21.5695 7.65776 27.2272 14.6138 27.2272C17.5445 27.2272 20.2418 26.219 22.3845 24.5365L27.4016 29.5536C27.6975 29.8495 28.0878 30 28.4777 30C28.8659 30 29.257 29.8521 29.5542 29.5533C30.1492 28.9594 30.1481 27.9954 29.5539 27.4013L24.5368 22.3843C26.2193 20.2416 27.2275 17.5443 27.2275 14.6136C27.2275 7.65769 21.5697 2 14.6138 2ZM5.04512 14.6136C5.04512 9.33748 9.33754 5.04509 14.6138 5.04509C19.89 5.04509 24.1824 9.33748 24.1824 14.6136C24.1824 19.8898 19.89 24.1821 14.6138 24.1821C9.33754 24.1821 5.04512 19.8898 5.04512 14.6136Z" fill="#6C6C6C"/>
</svg>