<svg xmlns="http://www.w3.org/2000/svg" width="32" height="32" viewBox="0 0 32 32" fill="none">
  <path d="M16.0001 11.0001C13.2427 11.0001 11.0001 13.2428 11.0001 16.0001C11.0001 18.7575 13.2427 21.0001 16.0001 21.0001C18.7574 21.0001 21.0001 18.7575 21.0001 16.0001C21.0001 13.2428 18.7574 11.0001 16.0001 11.0001ZM16.0001 19.0001C14.3454 19.0001 13.0001 17.6548 13.0001 16.0001C13.0001 14.3455 14.3454 13.0001 16.0001 13.0001C17.6547 13.0001 19.0001 14.3455 19.0001 16.0001C19.0001 17.6548 17.6547 19.0001 16.0001 19.0001ZM28.2774 18.6041C27.3521 18.0681 26.7761 17.0708 26.7747 16.0001C26.7734 14.9321 27.3454 13.9361 28.2827 13.3935C28.9694 12.9948 29.2041 12.1108 28.8067 11.4228L26.5774 7.57479C26.1801 6.88812 25.2961 6.65214 24.6081 7.04814C23.6761 7.58547 22.5174 7.58547 21.5827 7.04281C20.6614 6.50814 20.0881 5.5148 20.0881 4.44946C20.0881 3.6508 19.4374 3.00146 18.6387 3.00146H13.3654C12.5654 3.00146 11.9161 3.6508 11.9161 4.44946C11.9161 5.5148 11.3427 6.50812 10.4187 7.04545C9.48672 7.58545 8.3294 7.58677 7.3974 7.04944C6.70807 6.65211 5.82541 6.88946 5.42808 7.57613L3.19606 11.4281C2.79873 12.1148 3.03471 12.9974 3.72805 13.4001C4.65205 13.9348 5.22807 14.9308 5.23073 15.9988C5.2334 17.0681 4.66006 18.0668 3.72406 18.6095C3.39073 18.8028 3.15073 19.1134 3.05206 19.4868C2.9534 19.8588 3.00407 20.2468 3.19741 20.5815L5.42539 24.4268C5.82273 25.1148 6.70673 25.3535 7.3974 24.9548C8.3294 24.4175 9.48541 24.4188 10.4041 24.9508L10.4067 24.9521C10.4107 24.9548 10.4147 24.9575 10.4201 24.9601C11.3414 25.4948 11.9134 26.4881 11.912 27.5548C11.912 28.3534 12.5614 29.0028 13.36 29.0028H18.6387C19.4374 29.0028 20.0867 28.3534 20.0867 27.5561C20.0867 26.4894 20.6601 25.4961 21.5854 24.9588C22.5161 24.4188 23.6734 24.4161 24.6067 24.9548C25.2947 25.3521 26.1774 25.1161 26.5761 24.4294L28.808 20.5775C29.204 19.8881 28.9681 19.0041 28.2774 18.6041ZM25.1081 22.9694C23.6547 22.3361 21.968 22.4228 20.5787 23.2268C19.2014 24.0255 18.2921 25.4375 18.1161 27.0001H13.8801C13.7067 25.4375 12.7947 24.0228 11.4174 23.2255C10.0307 22.4215 8.3414 22.3361 6.89207 22.9694L5.19073 20.0321C6.46407 19.0948 7.23338 17.5908 7.22805 15.9908C7.22405 14.4015 6.45606 12.9081 5.18939 11.9708L6.89207 9.0321C8.34274 9.6641 10.0321 9.57877 11.4214 8.77344C12.7974 7.9761 13.7067 6.5628 13.8827 5.00146H18.1161C18.2907 6.56413 19.2014 7.97612 20.5814 8.77612C21.9667 9.58012 23.6561 9.66545 25.1081 9.03345L26.8107 11.9708C25.5401 12.9068 24.7721 14.4081 24.7747 16.0055C24.7761 17.5975 25.5441 19.0934 26.8121 20.0334L25.1081 22.9694Z" fill="#6C6C6C"/>
</svg>