<svg xmlns="http://www.w3.org/2000/svg" width="18" height="24" viewBox="0 0 18 24" fill="none">
  <path fill-rule="evenodd" clip-rule="evenodd" d="M10.5318 12L10.7811 11.7853C13.4151 9.51607 15.605 6.77771 17.2398 3.70934C17.3877 3.43172 17.4645 3.12177 17.4634 2.8072C17.4623 2.49264 17.3833 2.18325 17.2334 1.90669C17.0835 1.63013 16.8674 1.39503 16.6044 1.22238C16.3414 1.04973 16.0398 0.944931 15.7264 0.917337L14.1611 0.781337C10.7268 0.481091 7.27279 0.481091 3.83845 0.781337L2.27311 0.917337C1.95976 0.944931 1.65812 1.04973 1.39516 1.22238C1.1322 1.39503 0.916113 1.63013 0.766212 1.90669C0.616311 2.18325 0.537267 2.49264 0.536145 2.8072C0.535023 3.12177 0.611857 3.43172 0.759781 3.70934C2.39456 6.77769 4.58452 9.51605 7.21845 11.7853L7.46778 12L7.21845 12.2147C4.58426 14.4848 2.39428 17.224 0.759781 20.2933C0.612152 20.5709 0.535554 20.8807 0.536826 21.1951C0.538099 21.5095 0.617201 21.8187 0.767071 22.095C0.916942 22.3714 1.13292 22.6064 1.39571 22.7789C1.65851 22.9515 1.95995 23.0563 2.27311 23.084L3.83845 23.22C7.27311 23.5213 10.7264 23.5213 14.1611 23.22L15.7264 23.084C16.0396 23.0563 16.3411 22.9515 16.6039 22.7789C16.8666 22.6064 17.0826 22.3714 17.2325 22.095C17.3824 21.8187 17.4615 21.5095 17.4627 21.1951C17.464 20.8807 17.3874 20.5709 17.2398 20.2933C15.6051 17.2245 13.4152 14.4857 10.7811 12.216L10.5318 12ZM9.00511 10.6747L9.00778 10.672L9.47578 10.2693C11.8848 8.19372 13.8943 5.69535 15.4051 2.89734L13.9864 2.77334C10.6683 2.48327 7.33123 2.48327 4.01311 2.77334L2.59311 2.89734C4.10426 5.69592 6.11417 8.19475 8.52378 10.2707L8.99045 10.6733C8.9917 10.674 8.99305 10.6744 8.99445 10.6747H8.99978C9.00154 10.675 9.00335 10.675 9.00511 10.6747ZM9.00778 13.328L9.00511 13.3253H8.99978C8.99802 13.325 8.99621 13.325 8.99445 13.3253L8.99045 13.328L8.52378 13.7307C6.11419 15.8066 4.10429 18.3054 2.59311 21.104L4.01178 21.2267C7.33178 21.5173 10.6691 21.5173 13.9864 21.2267L15.4051 21.1027C13.8944 18.3042 11.8849 15.8054 9.47578 13.7293L9.00778 13.328Z" fill="#666666"/>
</svg>