<svg xmlns="http://www.w3.org/2000/svg" width="32" height="32" viewBox="0 0 32 32" fill="none">
  <path d="M18.3333 18.6667C18.3333 19.2187 17.8853 19.6667 17.3333 19.6667H9.33333C8.78133 19.6667 8.33333 19.2187 8.33333 18.6667C8.33333 18.1147 8.78133 17.6667 9.33333 17.6667H17.3333C17.8853 17.6667 18.3333 18.1147 18.3333 18.6667ZM13.3333 21.6667H9.33333C8.78133 21.6667 8.33333 22.1147 8.33333 22.6667C8.33333 23.2187 8.78133 23.6667 9.33333 23.6667H13.3333C13.8853 23.6667 14.3333 23.2187 14.3333 22.6667C14.3333 22.1147 13.8853 21.6667 13.3333 21.6667ZM29 15.3333V25.3333C29 27.356 27.356 29 25.3333 29H8C4.776 29 3 27.224 3 24V8C3 4.776 4.776 3 8 3H18.6667C21.8907 3 23.6667 4.776 23.6667 8V12.3333H26C27.6547 12.3333 29 13.6787 29 15.3333ZM22.068 27C21.812 26.5 21.6667 25.9333 21.6667 25.3333V8C21.6667 5.89733 20.7693 5 18.6667 5H8C5.89733 5 5 5.89733 5 8V24C5 26.1027 5.89733 27 8 27H22.068ZM27 15.3333C27 14.7813 26.552 14.3333 26 14.3333H23.6667V25.3333C23.6667 26.252 24.4147 27 25.3333 27C26.252 27 27 26.252 27 25.3333V15.3333ZM10.1773 12.1413L11.416 12.4613C11.62 12.5146 11.7627 12.7146 11.7627 12.9466C11.7627 13.1333 11.672 13.2547 11.62 13.3094C11.5614 13.3707 11.46 13.444 11.3187 13.444H10.7786C10.5573 13.444 10.364 13.2493 10.3373 13.0026C10.2773 12.4533 9.7907 12.0574 9.2347 12.116C8.68537 12.1747 8.28932 12.6693 8.34798 13.2186C8.45598 14.2213 9.13601 15.0214 10.0307 15.3161V15.3333C10.0307 15.8853 10.4787 16.3333 11.0307 16.3333C11.5827 16.3333 12.0307 15.8853 12.0307 15.3333V15.3241C12.4133 15.2041 12.7667 15.0001 13.0587 14.6987C13.512 14.2267 13.7613 13.6054 13.7613 12.9481C13.7613 11.8067 13.0054 10.812 11.9187 10.5267L10.6786 10.2067C10.5586 10.1747 10.4813 10.0986 10.432 10.036C10.3693 9.9533 10.332 9.83869 10.332 9.72135C10.332 9.44669 10.5306 9.22266 10.776 9.22266H11.316C11.54 9.22266 11.7307 9.41206 11.7573 9.66406C11.816 10.2134 12.2987 10.6053 12.86 10.5506C13.4094 10.492 13.8053 9.99741 13.7467 9.44808C13.6373 8.43341 12.9413 7.62664 12.0293 7.34131V7.33464C12.0293 6.78264 11.5813 6.33464 11.0293 6.33464C10.4773 6.33464 10.0293 6.78264 10.0293 7.33464V7.35466C9.04796 7.67866 8.33203 8.61069 8.33203 9.72135C8.33203 10.2747 8.51202 10.816 8.83602 11.2414C9.16935 11.6827 9.64399 12.0026 10.1773 12.1413Z" fill="#6C6C6C"/>
</svg>